<svg xmlns="http://www.w3.org/2000/svg" viewBox="0 0 1024 1024">
  <defs>
    <filter id="soften" x="-10%" y="-10%" width="120%" height="120%">
      <feGaussianBlur stdDeviation="18" />
    </filter>
    <linearGradient id="rimShade" x1="0" y1="0" x2="1" y2="1">
      <stop offset="0%" stop-color="#5c5c5c" />
      <stop offset="55%" stop-color="#1c1c1c" />
      <stop offset="100%" stop-color="#050505" />
    </linearGradient>
    <linearGradient id="slopeShade" x1="0" y1="0" x2="1" y2="1">
      <stop offset="0%" stop-color="#f0f0f0" />
      <stop offset="35%" stop-color="#c9c9c9" />
      <stop offset="75%" stop-color="#737373" />
      <stop offset="100%" stop-color="#1b1b1b" />
    </linearGradient>
  </defs>
  <rect width="1024" height="1024" fill="#ffffff" />
  <path d="M114 272 C110 170 308 140 426 198 C490 122 638 104 782 160 C934 220 954 350 918 452 C956 560 934 736 808 852 C674 964 404 956 248 846 C116 750 78 564 122 404 Z" fill="url(#rimShade)" />
  <path d="M180 292 C246 210 344 196 432 224 C520 174 636 160 744 212 C846 260 890 360 872 468 C902 574 858 710 762 806 C654 912 446 910 302 822 C176 746 136 598 170 460 C148 404 150 340 180 292 Z" fill="url(#slopeShade)" filter="url(#soften)" />
  <path d="M34 388 C140 430 248 472 360 520 C222 560 122 612 60 674 C40 620 28 560 28 494 C28 454 30 422 34 388 Z" fill="#efefef" filter="url(#soften)" />
  <ellipse cx="504" cy="566" rx="286" ry="278" fill="#ffffff" filter="url(#soften)" />
</svg>
